<svg width="794" height="577" viewBox="0 0 794 577" fill="none" xmlns="http://www.w3.org/2000/svg">
<path d="M68.0146 296.051C315.746 247.232 662.846 196.504 570.314 326.633C656.455 295.373 674.653 221.379 590.079 204.29C492.187 184.508 371.33 205.048 313.641 215.51C270.02 223.421 132.921 258.337 68.0146 296.051Z" fill="#668BB7"/>
<path d="M116.078 272.741C552.277 163.476 709.382 245.239 531.03 354.763C622.997 305.332 656.706 263.223 597.54 225.312C538.375 187.4 223.179 219.593 116.078 272.741C110.476 275.379 91.8535 284.763 116.078 272.741Z" fill="white"/>
<path d="M424.987 259.524C477.49 260.703 553.445 263.791 565.629 330.977C634.906 270.42 561.971 255.435 551.338 252.175C460.153 224.218 264.118 245.669 69.1921 295.837C113.933 288.878 275.813 256.173 424.987 259.524Z" fill="#4B6584"/>
<path d="M274.042 96.1043L316.626 147.986L358.855 138.77L287.457 85.4042C285.912 84.3253 284.068 83.7946 282.009 84.0943L277.791 84.8764C273.008 85.8248 267.097 87.1057 274.042 96.1043Z" fill="#1F2A36"/>
<path d="M474.462 147.98C471.186 135.293 447.999 127.397 428.902 130.26C418.324 131.842 255.254 169.285 255.254 169.285L207.296 135.092C204.937 133.332 201.98 132.669 199.074 133.218L188.945 135.281C187.633 135.514 186.919 137.258 187.717 138.404L216.512 177.321C218.821 180.475 218.208 184.644 215.237 187.053C213.028 188.931 213.378 192.202 215.936 193.596C231.334 200.566 264.053 207.495 288.265 204.813C314.255 201.913 335.96 199.049 335.96 199.049L343.893 274.941C344.226 278.678 347.665 281.5 351.501 280.984L359.074 280.134C361.88 279.767 364.287 277.525 364.851 274.751L383.718 186.21C383.718 186.21 431.276 173.737 444.329 170.66C457.381 167.583 477.739 160.667 474.462 147.98Z" fill="#1F2A36"/>
<path d="M225.687 289.82L247.787 289.9L247.778 293.852L230.462 293.789L230.432 306.581L246.604 306.639L246.595 310.591L230.423 310.533L230.386 326.237L225.602 326.22L225.687 289.82ZM258.901 326.86C255.157 326.846 253.29 324.638 253.3 320.236L253.376 287.736L257.796 287.751L257.721 320.199C257.718 321.413 257.906 322.28 258.287 322.801C258.701 323.288 259.394 323.533 260.365 323.537C261.127 323.54 261.995 323.335 262.966 322.922L263.636 325.577C262.317 326.439 260.738 326.866 258.901 326.86ZM286.384 300.438L276.91 326.872C274.503 333.554 270.803 336.886 265.811 336.869C264.91 336.865 263.939 336.741 262.9 336.494L262.908 333.114C263.531 333.324 264.294 333.431 265.195 333.434C266.963 333.441 268.472 332.805 269.723 331.527C270.974 330.248 272.175 328.086 273.327 325.039L263.712 300.357L268.444 300.374L275.366 320.315L281.6 300.421L286.384 300.438ZM292.973 295.938C292.002 295.934 291.24 295.672 290.687 295.15C290.133 294.628 289.858 293.916 289.86 293.015C289.862 292.113 290.141 291.404 290.697 290.886C291.253 290.333 292.016 290.058 292.987 290.062C293.957 290.065 294.719 290.345 295.273 290.902C295.861 291.424 296.154 292.136 296.152 293.037C296.149 293.939 295.853 294.648 295.263 295.166C294.707 295.684 293.943 295.941 292.973 295.938ZM290.778 300.454L295.198 300.47L295.137 326.47L290.718 326.454L290.778 300.454ZM302.136 307.047C302.143 303.754 302.079 301.569 301.943 300.494L306.051 300.509C306.187 301.653 306.253 303.196 306.248 305.138L306.404 305.138C307.17 303.546 308.335 302.302 309.897 301.407C311.494 300.476 313.263 300.015 315.204 300.022C318.255 300.033 320.54 301.029 322.061 303.01C323.582 304.992 324.338 307.941 324.328 311.859L324.294 326.575L319.874 326.559L319.909 311.791C319.915 309.017 319.452 306.953 318.519 305.598C317.586 304.242 316.166 303.561 314.26 303.554C312.804 303.549 311.486 303.926 310.305 304.684C309.125 305.408 308.204 306.445 307.542 307.794C306.88 309.109 306.547 310.599 306.543 312.263L306.51 326.511L302.09 326.495L302.136 307.047ZM352.196 300.675L352.138 325.843C352.128 330.003 351.098 333.154 349.047 335.296C346.997 337.438 343.996 338.501 340.044 338.487C338.311 338.481 336.612 338.267 334.949 337.845C333.321 337.423 331.849 336.828 330.534 336.061L331.997 332.842C334.594 334.1 337.227 334.733 339.897 334.743C345.305 334.762 348.016 331.565 348.031 325.152L348.037 322.76C347.34 324.075 346.281 325.111 344.857 325.868C343.434 326.626 341.821 327.002 340.019 326.995C336.587 326.983 333.886 325.742 331.916 323.274C329.945 320.806 328.965 317.439 328.975 313.175C328.985 309.085 329.963 305.881 331.91 303.566C333.856 301.25 336.528 300.098 339.926 300.111C341.728 300.117 343.305 300.487 344.655 301.22C346.04 301.953 347.13 303.014 347.924 304.403L348.028 304.404L348.556 300.662L352.196 300.675ZM347.75 311.943C347.756 309.308 347.137 307.243 345.892 305.748C344.648 304.253 342.916 303.501 340.698 303.493C338.444 303.485 336.657 304.363 335.336 306.126C334.049 307.855 333.402 310.245 333.395 313.295C333.387 316.485 334.023 318.983 335.301 320.79C336.58 322.563 338.363 323.453 340.651 323.461C342.87 323.469 344.605 322.817 345.856 321.504C347.107 320.156 347.735 318.287 347.741 315.895L347.75 311.943ZM371.583 290.344L393.423 290.423L393.414 294.375L376.358 294.313L376.331 305.649L391.567 305.704L391.558 309.656L376.322 309.601L376.291 322.809L393.347 322.871L393.338 326.823L371.498 326.744L371.583 290.344ZM406.459 327.39C403.893 327.38 401.798 326.628 400.172 325.131C398.546 323.635 397.736 321.708 397.742 319.35C397.748 316.75 398.723 314.743 400.668 313.329C402.647 311.915 405.439 311.214 409.045 311.227L414.401 311.246L414.404 309.894C414.408 307.953 413.892 306.478 412.854 305.469C411.851 304.425 410.379 303.9 408.438 303.893C406.878 303.887 405.438 304.211 404.119 304.865C402.835 305.485 401.758 306.399 400.889 307.61L398.659 304.898C399.841 303.411 401.283 302.29 402.983 301.533C404.684 300.742 406.574 300.35 408.654 300.357C411.913 300.369 414.424 301.175 416.188 302.777C417.953 304.378 418.831 306.669 418.824 309.65L418.796 321.87C418.793 323.222 418.997 324.904 419.408 326.916L415.56 326.902C415.25 326.104 415.027 324.89 414.892 323.26L414.788 323.26C413.815 324.608 412.616 325.644 411.193 326.367C409.77 327.055 408.192 327.396 406.459 327.39ZM407.143 323.908C408.46 323.913 409.674 323.675 410.785 323.193C411.895 322.677 412.763 321.987 413.389 321.123C414.05 320.258 414.382 319.306 414.384 318.266L414.393 314.418L408.881 314.398C406.697 314.39 405.015 314.818 403.834 315.68C402.653 316.543 402.061 317.771 402.058 319.366C402.054 320.753 402.502 321.863 403.402 322.699C404.336 323.499 405.583 323.903 407.143 323.908ZM432.42 327.483C430.479 327.476 428.712 327.071 427.119 326.268C425.561 325.465 424.454 324.404 423.798 323.084L426.663 321.118C427.25 322.056 428.063 322.787 429.102 323.311C430.141 323.835 431.267 324.099 432.48 324.103C433.936 324.108 435.133 323.697 436.071 322.868C437.044 322.005 437.532 320.932 437.535 319.649C437.537 318.609 437.158 317.741 436.397 317.045C435.636 316.349 434.285 315.634 432.346 314.899C429.401 313.813 427.324 312.679 426.114 311.496C424.938 310.313 424.352 308.855 424.356 307.122C424.36 305.111 425.162 303.502 426.759 302.294C428.357 301.052 430.473 300.436 433.107 300.445C434.806 300.451 436.348 300.821 437.733 301.554C439.152 302.287 440.242 303.296 441.002 304.582L438.293 306.548C437.084 304.741 435.353 303.833 433.099 303.825C431.817 303.821 430.759 304.112 429.925 304.698C429.127 305.284 428.726 306.046 428.724 306.982C428.722 307.918 429.136 308.716 429.967 309.378C430.797 310.005 432.338 310.756 434.589 311.631C437.256 312.646 439.143 313.762 440.249 314.979C441.356 316.162 441.907 317.672 441.903 319.509C441.897 321.936 441.026 323.874 439.289 325.324C437.553 326.773 435.263 327.493 432.42 327.483ZM466.833 301.086L457.36 327.521C454.952 334.203 451.252 337.535 446.26 337.517C445.359 337.513 444.389 337.389 443.349 337.142L443.357 333.762C443.981 333.973 444.743 334.079 445.644 334.082C447.412 334.089 448.922 333.453 450.173 332.175C451.424 330.897 452.625 328.734 453.776 325.688L444.162 301.005L448.894 301.022L455.815 320.963L462.049 301.069L466.833 301.086Z" fill="#4B6584"/>
</svg>
