<svg width="66" height="64" viewBox="0 0 66 64" fill="none" xmlns="http://www.w3.org/2000/svg">
<path d="M38.6667 5.33334C23.9467 5.33334 12 17.28 12 32C12 46.72 23.9467 58.6667 38.6667 58.6667C53.3867 58.6667 65.3333 46.72 65.3333 32C65.3333 17.28 53.3867 5.33334 38.6667 5.33334ZM38.6667 13.3333C43.0933 13.3333 46.6667 16.9067 46.6667 21.3333C46.6667 25.76 43.0933 29.3333 38.6667 29.3333C34.24 29.3333 30.6667 25.76 30.6667 21.3333C30.6667 16.9067 34.24 13.3333 38.6667 13.3333ZM38.6667 51.2C32 51.2 26.1067 47.7867 22.6667 42.6133C22.7467 37.3067 33.3333 34.4 38.6667 34.4C43.9733 34.4 54.5867 37.3067 54.6667 42.6133C51.2267 47.7867 45.3333 51.2 38.6667 51.2Z" fill="#343434"/>
</svg>
